<?xml version="1.0" encoding="UTF-8" standalone="no"?>
<!-- Generator: Adobe Illustrator 19.0.0, SVG Export Plug-In . SVG Version: 6.00 Build 0)  -->

<svg
   version="1.1"
   id="Capa_1"
   x="0px"
   y="0px"
   viewBox="0 0 490.4 490.4"
   style="enable-background:new 0 0 490.4 490.4;"
   xml:space="preserve"
   sodipodi:docname="heart.svg"
   inkscape:version="1.1.2 (b8e25be833, 2022-02-05)"
   xmlns:inkscape="http://www.inkscape.org/namespaces/inkscape"
   xmlns:sodipodi="http://sodipodi.sourceforge.net/DTD/sodipodi-0.dtd"
   xmlns="http://www.w3.org/2000/svg"
   xmlns:svg="http://www.w3.org/2000/svg"><defs
   id="defs41" /><sodipodi:namedview
   id="namedview39"
   pagecolor="#ffffff"
   bordercolor="#666666"
   borderopacity="1.0"
   inkscape:pageshadow="2"
   inkscape:pageopacity="0.0"
   inkscape:pagecheckerboard="0"
   showgrid="false"
   inkscape:zoom="1.0583198"
   inkscape:cx="245.2"
   inkscape:cy="245.67244"
   inkscape:window-width="1366"
   inkscape:window-height="705"
   inkscape:window-x="-8"
   inkscape:window-y="-8"
   inkscape:window-maximized="1"
   inkscape:current-layer="Capa_1" />
<g
   id="g6">
	<g
   id="g4">
		<path
   d="M222.5,453.7c6.1,6.1,14.3,9.5,22.9,9.5c8.5,0,16.9-3.5,22.9-9.5L448,274c27.3-27.3,42.3-63.6,42.4-102.1    c0-38.6-15-74.9-42.3-102.2S384.6,27.4,346,27.4c-37.9,0-73.6,14.5-100.7,40.9c-27.2-26.5-63-41.1-101-41.1    c-38.5,0-74.7,15-102,42.2C15,96.7,0,133,0,171.6c0,38.5,15.1,74.8,42.4,102.1L222.5,453.7z M59.7,86.8    c22.6-22.6,52.7-35.1,84.7-35.1s62.2,12.5,84.9,35.2l7.4,7.4c2.3,2.3,5.4,3.6,8.7,3.6l0,0c3.2,0,6.4-1.3,8.7-3.6l7.2-7.2    c22.7-22.7,52.8-35.2,84.9-35.2c32,0,62.1,12.5,84.7,35.1c22.7,22.7,35.1,52.8,35.1,84.8s-12.5,62.1-35.2,84.8L251,436.4    c-2.9,2.9-8.2,2.9-11.2,0l-180-180c-22.7-22.7-35.2-52.8-35.2-84.8C24.6,139.6,37.1,109.5,59.7,86.8z"
   id="path2" />
	</g>
</g>
<g
   id="g8">
</g>
<g
   id="g10">
</g>
<g
   id="g12">
</g>
<g
   id="g14">
</g>
<g
   id="g16">
</g>
<g
   id="g18">
</g>
<g
   id="g20">
</g>
<g
   id="g22">
</g>
<g
   id="g24">
</g>
<g
   id="g26">
</g>
<g
   id="g28">
</g>
<g
   id="g30">
</g>
<g
   id="g32">
</g>
<g
   id="g34">
</g>
<g
   id="g36">
</g>
<path
   style="fill:#ff0000;stroke-width:0.944894"
   d="M 241.42042,436.6635 C 236.97829,433.82932 54.661702,250.60567 49.964554,244.2551 40.943383,232.05845 35.478471,221.79778 31.196611,209.01728 23.539166,186.16134 23.529971,156.86677 31.17312,134.17495 43.377147,97.942296 72.406268,69.351791 108.66281,57.856092 c 13.14672,-4.168369 21.49238,-5.363906 36.85087,-5.278977 31.90256,0.176414 58.60778,11.273503 82.60278,34.324767 10.07506,9.678804 12.70092,11.367096 17.67961,11.367096 4.12555,0 5.99993,-1.254711 15.7411,-10.537087 24.91492,-23.741487 52.67174,-35.15162 85.23893,-35.039589 65.71535,0.226059 118.31906,53.008108 118.40453,118.805958 0.0253,19.49194 -3.49326,35.22147 -11.62512,51.96917 -8.68921,17.89555 -7.37638,16.47164 -109.07501,118.30348 -60.46383,60.54304 -96.36757,95.82326 -97.86316,96.16361 -1.48915,0.33888 -3.40994,-0.13088 -5.19692,-1.27102 z"
   id="path117" /></svg>
