<?xml version="1.0" encoding="UTF-8" standalone="no"?>
<svg
   width="48px"
   height="48px"
   viewBox="0 0 48 48"
   fill="none"
   version="1.1"
   id="svg6"
   sodipodi:docname="single-dot-config.svg"
   inkscape:version="1.1.2 (b8e25be833, 2022-02-05)"
   xmlns:inkscape="http://www.inkscape.org/namespaces/inkscape"
   xmlns:sodipodi="http://sodipodi.sourceforge.net/DTD/sodipodi-0.dtd"
   xmlns="http://www.w3.org/2000/svg"
   xmlns:svg="http://www.w3.org/2000/svg">
  <g
     id="g94"
     transform="matrix(2.1760705,0,0,2.1760705,-28.132844,-28.132844)">
    <path
       d="m 24,33 c 4.9706,0 9,-4.0294 9,-9 0,-4.9706 -4.0294,-9 -9,-9 -4.9706,0 -9,4.0294 -9,9 0,4.9706 4.0294,9 9,9 z"
       fill="#000000"
       stroke="#000000"
       stroke-width="4"
       id="path4" />
    <g
       id="g1955"
       transform="matrix(0.56270398,0,0,0.56270398,14.996892,15.096455)"
       style="fill:#ffffff">
      <g
         id="icomoon-ignore"
         style="fill:#ffffff" />
      <path
         d="m 17.599,3.738 v 2.598 l 0.8,0.207 c 0.905,0.234 1.768,0.597 2.566,1.081 l 0.715,0.434 1.86,-1.86 2.262,2.262 -1.888,1.888 0.407,0.708 c 0.451,0.785 0.788,1.635 1.002,2.527 l 0.196,0.817 h 2.744 v 3.199 h -2.806 l -0.216,0.782 c -0.233,0.844 -0.583,1.654 -1.04,2.406 l -0.434,0.716 2.036,2.035 -2.262,2.262 -2.064,-2.064 -0.707,0.407 c -0.734,0.422 -1.531,0.745 -2.368,0.961 l -0.8,0.206 v 2.951 H 14.403 V 25.31 l -0.8,-0.206 C 12.766,24.888 11.969,24.565 11.235,24.143 L 10.527,23.736 8.463,25.8 6.201,23.538 8.237,21.503 7.803,20.787 C 7.346,20.034 6.996,19.225 6.763,18.381 L 6.547,17.599 H 3.741 V 14.4 H 6.485 L 6.681,13.583 C 6.894,12.692 7.232,11.841 7.683,11.056 L 8.09,10.348 6.202,8.46 8.464,6.198 l 1.86,1.86 0.715,-0.434 C 11.837,7.14 12.7,6.776 13.605,6.543 l 0.8,-0.207 V 3.738 h 3.199 z M 16,20.799 c 2.646,0 4.798,-2.153 4.798,-4.799 0,-2.646 -2.152,-4.799 -4.798,-4.799 -2.646,0 -4.798,2.153 -4.798,4.799 0,2.646 2.152,4.799 4.798,4.799 z M 18.666,2.672 H 13.335 V 5.511 C 12.317,5.774 11.36,6.181 10.483,6.713 L 8.461,4.691 4.692,8.461 6.757,10.526 c -0.498,0.867 -0.875,1.81 -1.114,2.809 h -2.97 v 5.331 h 3.06 c 0.263,0.953 0.655,1.85 1.156,2.676 l -2.198,2.198 3.769,3.77 2.241,-2.241 c 0.816,0.469 1.7,0.828 2.633,1.069 v 3.191 h 5.331 v -3.191 c 0.933,-0.241 1.817,-0.6 2.633,-1.069 l 2.241,2.241 3.769,-3.77 -2.198,-2.198 c 0.501,-0.826 0.893,-1.723 1.156,-2.676 h 3.06 v -5.331 h -2.97 C 26.117,12.336 25.74,11.394 25.242,10.526 L 27.307,8.461 23.538,4.691 21.516,6.713 C 20.639,6.181 19.682,5.774 18.664,5.511 v -2.839 0 z M 16,19.733 c -2.062,0 -3.732,-1.671 -3.732,-3.733 0,-2.062 1.67,-3.732 3.732,-3.732 2.062,0 3.732,1.671 3.732,3.732 0,2.062 -1.67,3.733 -3.732,3.733 z"
         fill="#000000"
         id="path1945"
         style="fill:#ffffff" />
    </g>
  </g>
  <defs
     id="defs10" />
  <sodipodi:namedview
     id="namedview8"
     pagecolor="#ffffff"
     bordercolor="#666666"
     borderopacity="1.0"
     inkscape:pageshadow="2"
     inkscape:pageopacity="0.0"
     inkscape:pagecheckerboard="0"
     showgrid="false"
     inkscape:zoom="7.2407734"
     inkscape:cx="-5.1790048"
     inkscape:cy="23.340048"
     inkscape:window-width="1366"
     inkscape:window-height="705"
     inkscape:window-x="-8"
     inkscape:window-y="-8"
     inkscape:window-maximized="1"
     inkscape:current-layer="svg6" />
</svg>
