<?xml version="1.0" encoding="UTF-8" standalone="no"?>
<svg
   width="48px"
   height="48px"
   viewBox="0 0 48 48"
   fill="none"
   version="1.1"
   id="svg6"
   sodipodi:docname="single-dot-save.svg"
   inkscape:version="1.1.2 (b8e25be833, 2022-02-05)"
   xmlns:inkscape="http://www.inkscape.org/namespaces/inkscape"
   xmlns:sodipodi="http://sodipodi.sourceforge.net/DTD/sodipodi-0.dtd"
   xmlns="http://www.w3.org/2000/svg"
   xmlns:svg="http://www.w3.org/2000/svg">
  <g
     id="g90"
     transform="matrix(2.179708,0,0,2.176684,-28.379981,-28.23721)">
    <path
       d="m 24,33 c 4.9706,0 9,-4.0294 9,-9 0,-4.9706 -4.0294,-9 -9,-9 -4.9706,0 -9,4.0294 -9,9 0,4.9706 4.0294,9 9,9 z"
       fill="#000000"
       stroke="#000000"
       stroke-width="4"
       id="path4" />
    <path
       style="fill:#ffffff;stroke-width:0.028665"
       d="m 18.11264,30.49108 c -0.256335,-0.06947 -0.492456,-0.27467 -0.610944,-0.530926 l -0.06126,-0.132499 v -5.89065 -5.890649 l 0.06196,-0.134035 c 0.08774,-0.189826 0.27563,-0.381849 0.464303,-0.474514 l 0.161717,-0.07941 h 5.89065 5.890649 l 0.161714,0.07941 c 0.188677,0.09267 0.376573,0.284688 0.464303,0.474514 l 0.06199,0.134035 v 5.890649 5.89065 l -0.07942,0.161717 c -0.09266,0.188675 -0.284687,0.376569 -0.474516,0.464301 l -0.134028,0.06199 -5.833321,0.0059 c -4.54831,0.0045 -5.862047,-0.0026 -5.963728,-0.02992 z m 1.520658,-2.82091 c 0,-1.891334 0.0032,-2.005249 0.05307,-2.099708 0.02921,-0.05493 0.09559,-0.128905 0.147565,-0.164377 l 0.09449,-0.06449 h 4.090612 4.090611 l 0.0945,0.06449 c 0.05198,0.03543 0.118372,0.109441 0.147563,0.164377 0.05024,0.09447 0.05311,0.208388 0.05311,2.100237 v 2.000358 l 0.666462,-0.0074 0.666459,-0.0074 V 23.937462 18.2188 l -0.666459,-0.0074 -0.666462,-0.0075 v 1.988501 1.988508 l -0.0645,0.09476 c -0.03543,0.0521 -0.100917,0.121752 -0.14543,0.154733 l -0.08094,0.05993 h -4.07549 c -3.813871,0 -4.081324,-0.0033 -4.16639,-0.04973 -0.04999,-0.02735 -0.120944,-0.09187 -0.157658,-0.143328 l -0.06677,-0.09361 -0.0077,-1.999904 -0.0077,-1.999913 -0.665709,0.0074 -0.66571,0.0074 -0.007,5.689993 c -0.0041,3.129502 -0.0015,5.706122 0.0066,5.725831 0.01032,0.02722 0.172031,0.03585 0.673813,0.03585 h 0.660193 z m 7.911532,0.265598 v -1.734229 h -3.525791 -3.525791 v 1.734229 1.73423 h 3.525791 3.525791 z m 0,-8.011862 V 18.204009 H 27.172184 26.79954 l -0.0011,1.024776 c -5.84e-4,0.948526 -0.0051,1.033791 -0.05568,1.146004 -0.03181,0.07 -0.09511,0.145668 -0.149863,0.179049 -0.09139,0.05574 -0.141673,0.05774 -1.384752,0.05774 -1.236684,0 -1.293778,-0.0025 -1.383342,-0.05698 -0.05141,-0.03129 -0.119059,-0.099 -0.150388,-0.150379 -0.05416,-0.08874 -0.05697,-0.146257 -0.05708,-1.146861 l -4.3e-5,-1.053433 h -1.561919 -1.562239 v 1.719898 1.719902 h 3.52579 3.525792 z m -1.611944,-0.93877 0.0074,-0.781127 H 25.208831 24.47741 v 0.78878 0.788781 l 0.723794,-0.0074 0.723787,-0.0074 z"
       id="path628" />
  </g>
  <defs
     id="defs10" />
  <sodipodi:namedview
     id="namedview8"
     pagecolor="#ffffff"
     bordercolor="#666666"
     borderopacity="1.0"
     inkscape:pageshadow="2"
     inkscape:pageopacity="0.0"
     inkscape:pagecheckerboard="0"
     showgrid="false"
     inkscape:zoom="10.24"
     inkscape:cx="31.298828"
     inkscape:cy="36.914062"
     inkscape:window-width="1366"
     inkscape:window-height="705"
     inkscape:window-x="-8"
     inkscape:window-y="-8"
     inkscape:window-maximized="1"
     inkscape:current-layer="svg6" />
</svg>
