<?xml version="1.0" encoding="UTF-8" standalone="no"?>
<svg
   width="48px"
   height="48px"
   viewBox="0 0 48 48"
   fill="none"
   version="1.1"
   id="svg6"
   sodipodi:docname="single-dot-share.svg"
   inkscape:version="1.1.2 (b8e25be833, 2022-02-05)"
   xmlns:inkscape="http://www.inkscape.org/namespaces/inkscape"
   xmlns:sodipodi="http://sodipodi.sourceforge.net/DTD/sodipodi-0.dtd"
   xmlns="http://www.w3.org/2000/svg"
   xmlns:svg="http://www.w3.org/2000/svg">
  <defs
     id="defs10" />
  <sodipodi:namedview
     id="namedview8"
     pagecolor="#ffffff"
     bordercolor="#666666"
     borderopacity="1.0"
     inkscape:pageshadow="2"
     inkscape:pageopacity="0.0"
     inkscape:pagecheckerboard="0"
     showgrid="false"
     inkscape:zoom="7.2407734"
     inkscape:cx="10.012743"
     inkscape:cy="27.759466"
     inkscape:window-width="1366"
     inkscape:window-height="705"
     inkscape:window-x="-8"
     inkscape:window-y="-8"
     inkscape:window-maximized="1"
     inkscape:current-layer="svg6" />
  <rect
     width="48"
     height="48"
     fill="#ffffff"
     fill-opacity="0.01"
     id="rect2"
     x="-19.75762"
     y="-17.536098" />
  <path
     d="m 24.065189,43.497759 c 10.808667,0 19.570674,-8.762009 19.570674,-19.570678 0,-10.808669 -8.762007,-19.5706783 -19.570674,-19.5706783 -10.808671,0 -19.5706781,8.7620093 -19.5706781,19.5706783 0,10.808669 8.7620071,19.570678 19.5706781,19.570678 z"
     fill="#000000"
     stroke="#000000"
     stroke-width="8.65864"
     id="path4" />
  <path
     style="fill:#ffffff;stroke-width:0.0688979"
     d="m 31.823891,39.607107 c -1.426383,-0.270535 -2.817146,-1.125563 -3.674252,-2.258899 -0.418717,-0.55366 -0.884985,-1.522857 -1.067273,-2.21846 -0.108992,-0.415925 -0.144766,-0.762524 -0.145763,-1.412407 -0.0013,-0.833433 0.06072,-1.193693 0.385359,-2.239183 0.03807,-0.122614 -0.413449,-0.376843 -4.099328,-2.30808 -2.278162,-1.193657 -4.180623,-2.179446 -4.22769,-2.190641 -0.04707,-0.01115 -0.141971,0.06632 -0.2109,0.172245 -0.688485,1.058061 -2.061079,2.003331 -3.44287,2.371015 -0.777876,0.206988 -2.048115,0.211053 -2.859263,0.0091 -2.178723,-0.542308 -3.8279382,-2.163801 -4.42581,-4.351415 -0.203363,-0.744106 -0.203363,-2.231375 0,-2.97548 0.5977328,-2.18711 2.247355,-3.813297 4.411392,-4.348721 0.82705,-0.204629 2.091085,-0.201789 2.873681,0.0064 1.381791,0.367684 2.754385,1.312956 3.44287,2.371016 0.06893,0.105929 0.163833,0.183439 0.2109,0.172244 0.04707,-0.01115 1.949528,-0.996983 4.22769,-2.19064 3.685879,-1.931238 4.137402,-2.185462 4.099328,-2.30808 -0.324639,-1.04549 -0.38664,-1.405751 -0.385359,-2.239183 0.0015,-1.036279 0.144658,-1.662664 0.590113,-2.583672 0.522019,-1.079309 1.160537,-1.7994017 2.179678,-2.4581457 3.011976,-1.94686 7.099617,-0.760517 8.649183,2.5102217 0.400285,0.8449 0.533774,1.470672 0.540038,2.531595 0.0045,0.766226 -0.02238,1.033171 -0.152672,1.514928 -0.660554,2.442378 -2.699355,4.200156 -5.190217,4.47481 -1.413605,0.155869 -2.936998,-0.238104 -4.076471,-1.054244 -0.437446,-0.31332 -1.237019,-1.104566 -1.454064,-1.438924 -0.06765,-0.104212 -0.152153,-0.189469 -0.187795,-0.189469 -0.04707,0 -8.276597,4.294468 -8.373784,4.369745 -0.0079,0.0062 0.0589,0.242385 0.14852,0.524963 0.386652,1.219048 0.363463,2.644399 -0.06261,3.848852 -0.05906,0.16696 -0.0993,0.310181 -0.08942,0.318268 0.08645,0.07079 8.328162,4.373268 8.377305,4.373268 0.03564,0 0.120153,-0.08526 0.187795,-0.189469 0.217045,-0.334358 1.016617,-1.125604 1.454064,-1.438923 1.139473,-0.81614 2.662866,-1.210113 4.076471,-1.054244 2.059073,0.227042 3.857326,1.48738 4.761478,3.337167 1.660014,3.396192 -0.226679,7.492939 -3.888301,8.443027 -0.729362,0.189248 -1.893545,0.233681 -2.602012,0.0993 z m 2.041752,-1.028565 c 3.166448,-0.605843 4.931108,-4.055025 3.562177,-6.962588 -0.779903,-1.656489 -2.248411,-2.690773 -4.107753,-2.893131 -0.855607,-0.09311 -2.113772,0.195049 -2.909109,0.666296 -0.529575,0.313779 -1.323342,1.07601 -1.662289,1.596246 -1.402718,2.152972 -0.909769,5.098942 1.108668,6.625648 1.186077,0.897128 2.596674,1.237618 4.008306,0.967529 z M 15.134481,28.517236 c 1.370685,-0.352812 2.616381,-1.385936 3.23686,-2.684504 0.355332,-0.743658 0.471739,-1.271732 0.471739,-2.14004 0,-0.868308 -0.116412,-1.396382 -0.471739,-2.14004 -0.625651,-1.309393 -1.850129,-2.319327 -3.271309,-2.698133 -0.686255,-0.182917 -1.887366,-0.163593 -2.546795,0.04097 -1.763027,0.546917 -3.0152562,1.810862 -3.4899392,3.522589 -0.17112,0.617067 -0.17112,1.932157 0,2.549225 0.521146,1.879275 2.0849612,3.29988 4.0223912,3.654032 0.445057,0.08135 1.545532,0.02544 2.048792,-0.104096 z m 19.01583,-10.000884 c 1.005142,-0.251468 2.076286,-0.953077 2.688586,-1.761049 1.590604,-2.098914 1.355271,-4.980305 -0.548716,-6.718413 C 34.470262,8.3755233 31.8482,8.2685193 29.857337,9.7743703 27.8389,11.301077 27.345951,14.247047 28.748669,16.400019 c 0.338947,0.520236 1.132714,1.282467 1.662289,1.596246 1.073864,0.636277 2.488488,0.83303 3.739353,0.520087 z"
     id="path607" />
</svg>
